<svg xmlns="http://www.w3.org/2000/svg" version="1.1" xmlnsXlink="http://www.w3.org/1999/xlink" xmlnsSvgjs="http://svgjs.dev/svgjs" width="1440" height="560" preserveAspectRatio="none" viewBox="0 0 1440 560">
    <g mask="url(&quot;#SvgjsMask1039&quot;)" fill="none">
        <rect width="1440" height="560" x="0" y="0" fill="rgba(6, 45, 86, 1)"></rect>
        <path d="M140 87.84C84.5 87.84 24.35 119.18 24.35 140C24.35 159.56 83.02 168.6 140 168.6C178.84 168.6 216 158.91 216 140C216 118.53 180.32 87.84 140 87.84" stroke="rgba(16, 110, 209, 0.58)" stroke-width="2"></path>
        <path d="M453.6 0C497.19 57.69 509.8 66 525.78 140C540.03 206 505.2 212.04 514.06 280C522.31 343.29 528.25 402.5 560 402.5C597.16 402.5 643.56 345.9 651.88 280C660.12 214.65 608.37 212.84 593.12 140C579.06 72.84 562.93 39.72 593.25 0C616.37 -30.28 646.63 0 700 0C770 0 770 0 840 0C890 0 912.95 -28.74 940 0C978.83 41.26 954.7 70.34 971.76 140C974.7 152.01 971.39 163.33 980 163.33C997.05 163.33 1009.13 159.24 1023.08 140C1068.36 77.57 1055.78 61.65 1098.46 0C1104.24 -8.35 1109.23 0 1120 0C1160 0 1160.99 -5.85 1200 0C1230.99 4.65 1235.44 21 1260 21C1268.44 21 1256.19 1.47 1266 0C1326.19 -9.03 1333 0 1400 0C1466.05 0 1470.61 -7.23 1532.11 0C1540.61 1 1539.49 7.45 1540 16.47C1543.44 77.45 1540 78.24 1540 140C1540 210 1540 210 1540 280C1540 350 1540 350 1540 420C1540 481.92 1572.85 514.19 1540 543.85C1502.85 577.38 1468.96 539.98 1400 546.39C1382.06 548.06 1384.09 558.26 1366.21 560C1314.09 565.07 1313.11 560 1260 560C1195.84 560 1195.07 562.95 1131.67 560C1125.07 559.69 1123.96 558.81 1120 553.49C1071.84 488.81 1073.2 487.09 1027.42 420C1003.2 384.49 1014.83 354.38 980 348.29C921.12 338 907.16 361.63 840 387.23C813.1 397.49 791.88 404.27 791.88 420C791.88 435.19 817.78 431.94 840 449.06C908.66 501.94 973.64 528.65 973.64 560C973.64 584.12 906.82 560 840 560C770 560 770 560 700 560C630 560 630 560 560 560C490 560 490 560 420 560C350 560 350 560 280 560C210 560 210 560 140 560C70 560 35 595 0 560C-35 525 0 490 0 420C0 353.59 -1.73 353.17 0 287.18C0.11 283.17 3.68 283.96 3.68 280C3.68 257.03 0.61 256.71 0 233.33C-1.23 186.71 0 186.67 0 140C0 70 -35 35 0 0C35 -35 70 0 140 0C210 0 210 0 280 0C350 0 350 0 420 0C436.8 0 444.3 -12.31 453.6 0" stroke="rgba(16, 110, 209, 0.58)" stroke-width="2"></path>
        <path d="M280 222.96C268.71 222.96 261.88 253.06 261.88 280C261.88 293.43 269.6 303.69 280 303.69C292.92 303.69 308.52 294.84 308.52 280C308.52 254.47 292.03 222.96 280 222.96" stroke="rgba(16, 110, 209, 0.58)" stroke-width="2"></path>
        <path d="M1120 210C1101.48 210 1076.55 250.43 1076.55 280C1076.55 298.03 1099.66 305.2 1120 305.2C1135.08 305.2 1147.39 295.76 1147.39 280C1147.39 248.16 1136.9 210 1120 210" stroke="rgba(16, 110, 209, 0.58)" stroke-width="2"></path>
        <path d="M1400 175C1382.17 175 1365.71 233.65 1365.71 280C1365.71 297.06 1382.65 301.82 1400 301.82C1418.46 301.82 1437.33 297.73 1437.33 280C1437.33 234.32 1417.98 175 1400 175" stroke="rgba(16, 110, 209, 0.58)" stroke-width="2"></path>
        <path d="M140 19.22C70.77 45.6 47.93 74.87 0 68.29C-22.07 65.26 -22.95 11.19 0 0C47.05 -22.95 70 0 140 0C159.6 0 179.2 -4.55 179.2 0C179.2 5.06 160.37 11.46 140 19.22" stroke="rgba(16, 110, 209, 0.58)" stroke-width="2"></path>
        <path d="M304.23 140C315.71 81.69 368.7 42.9 420 42.9C460.03 42.9 477.98 86.36 486.89 140C497.67 204.91 469.69 209.5 459.38 280C449.21 349.5 461.07 353.35 445.93 420C441.38 440.01 438.37 444.16 420 453.33C355.4 485.59 352.03 491.73 280 502.86C212.03 513.36 208.95 489.42 140 496.6C68.95 503.99 39.42 553.57 0 532C-30.58 515.27 0 476 0 420C0 398.46 -7.05 396.76 0 376.92C17.82 326.76 15.92 321.23 49.74 280C85.92 235.89 95.89 206.24 140 206.24C181.37 206.24 183.73 240.03 220.71 280C253.73 315.68 245.98 357.54 280 357.54C322.29 357.54 368.03 327.57 373.33 280C380.15 218.8 292.37 200.24 304.23 140" stroke="rgba(16, 110, 209, 0.58)" stroke-width="2"></path>
        <path d="M630.75 140C614.27 75.3 613.11 48.29 637 0C647.74 -21.71 668.5 0 700 0C770 0 770 0 840 0C867.28 0 883.43 -19.39 894.55 0C923.57 50.61 909.81 69.64 920.29 140C930.66 209.64 959.57 229.82 936.25 280C919.42 316.21 886.81 312.77 840 312.77C807.88 312.77 809.97 294.76 778.4 280C739.97 262.04 729.48 275.29 700 247.33C655.66 205.29 645.77 198.97 630.75 140" stroke="rgba(16, 110, 209, 0.58)" stroke-width="2"></path>
        <path d="M1400 93.33C1358.16 93.33 1316 27.96 1316 0C1316 -18.7 1358 0 1400 0C1441.41 0 1482.82 -18.62 1482.82 0C1482.82 28.05 1441.57 93.33 1400 93.33" stroke="rgba(16, 110, 209, 0.58)" stroke-width="2"></path>
        <path d="M1513.08 140C1515.51 124.35 1531.63 119.41 1540 119.41C1545.09 119.41 1540 129.7 1540 140C1540 210 1540 210 1540 280C1540 350 1540 350 1540 420C1540 448.27 1559.97 465.44 1540 476.54C1489.97 504.33 1469.98 497.91 1400 497.78C1329.98 497.64 1330.4 482.46 1260 476C1190.4 469.61 1180.62 491.37 1120 472.09C1092.56 463.37 1083.87 445.39 1083.87 420C1083.87 396.95 1099.73 395.53 1120 375.2C1169.53 325.53 1181.09 334.26 1223.48 280C1251.09 244.66 1242.21 196 1260 196C1277.62 196 1264.89 248.23 1294.29 280C1334.89 323.87 1346.51 347.27 1400 347.27C1456.92 347.27 1487.53 330.55 1515.11 280C1544.07 226.91 1503.06 204.65 1513.08 140" stroke="rgba(16, 110, 209, 0.58)" stroke-width="2"></path>
        <path d="M775.68 560C775.68 547.66 808.78 515.09 840 515.09C867.98 515.09 894.09 547.31 894.09 560C894.09 569.76 867.05 560 840 560C807.84 560 775.68 570.12 775.68 560" stroke="rgba(16, 110, 209, 0.58)" stroke-width="2"></path>
        <path d="M371.54 140C371.54 114.45 398.53 99.35 420 99.35C436.76 99.35 448 117.33 448 140C448 188.05 438.48 240.8 420 240.8C400.25 240.8 371.54 185.18 371.54 140" stroke="rgba(16, 110, 209, 0.58)" stroke-width="2"></path>
        <path d="M668.39 140C661.59 73.21 666.85 61.57 680.75 0C682.65 -8.43 690.38 0 700 0C770 0 770 0 840 0C844.55 0 848.22 -4.23 849.09 0C862.63 65.77 871.78 71.62 868.82 140C867.24 176.62 869.41 201.46 840 210C785 225.96 760.77 213.79 700 189C674.97 178.79 671.21 167.71 668.39 140" stroke="rgba(16, 110, 209, 0.58)" stroke-width="2"></path>
        <path d="M1400 37.78C1383.07 37.78 1366 11.32 1366 0C1366 -7.57 1383 0 1400 0C1416.76 0 1433.52 -7.54 1433.52 0C1433.52 11.35 1416.83 37.78 1400 37.78" stroke="rgba(16, 110, 209, 0.58)" stroke-width="2"></path>
        <path d="M95.79 280C100.55 254.55 118.39 243.87 140 243.87C160.26 243.87 162.41 259.51 179.53 280C232.41 343.27 226.19 350.53 280 411.38C288.09 420.53 303.33 415.1 303.33 420C303.33 425.12 292.78 430.6 280 431.43C211.12 435.89 209.34 435.15 140 430.57C122.87 429.44 111.43 434.88 107.06 420C89.32 359.59 84.08 342.61 95.79 280" stroke="rgba(16, 110, 209, 0.58)" stroke-width="2"></path>
        <path d="M1344.74 420C1344.74 405.99 1370.89 392.73 1400 392.73C1453.78 392.73 1510.53 405.92 1510.53 420C1510.53 434.14 1453.6 449.17 1400 449.17C1370.7 449.17 1344.74 434.21 1344.74 420" stroke="rgba(16, 110, 209, 0.58)" stroke-width="2"></path>
    </g>
    <defs>
        <mask id="SvgjsMask1039">
            <rect width="1440" height="560" fill="#ffffff"></rect>
        </mask>
    </defs>
</svg>